<svg width="1775" height="324" viewBox="0 0 1775 324" fill="none" xmlns="http://www.w3.org/2000/svg">
<path d="M104.105 0.224437C105.241 0.233863 106.377 0.24329 107.547 0.253002C125.051 0.565493 140.527 4.87763 156.105 12.9119C156.777 13.2543 157.45 13.5968 158.143 13.9495C170.29 20.4563 179.595 30.5878 189.167 40.2869C190.476 41.6058 191.785 42.9241 193.095 44.242C195.494 46.6574 197.89 49.0753 200.283 51.4967C205.5 56.7722 205.5 56.7722 210.812 61.951C211.589 62.7012 212.366 63.4515 213.167 64.2244C213.957 64.9798 214.747 65.7352 215.562 66.5135C217.355 68.5994 217.355 68.5994 217.355 71.5994C215.956 73.0743 215.956 73.0743 213.98 74.6658C208.805 79.0017 204.101 83.7427 199.355 88.5369C198.484 89.4116 197.614 90.2862 196.718 91.1873C194.594 93.3224 192.473 95.4598 190.355 97.5994C187.049 96.1603 184.913 94.3838 182.403 91.8116C181.638 91.0335 180.873 90.2554 180.085 89.4538C179.265 88.6111 178.445 87.7684 177.601 86.9002C175.841 85.1154 174.081 83.3309 172.321 81.5467C169.562 78.7376 166.805 75.9254 164.054 73.1075C161.391 70.3835 158.716 67.6725 156.038 64.9627C155.232 64.1302 154.427 63.2976 153.597 62.4398C140.599 49.3309 124.544 41.5296 106.042 41.2869C98.7858 41.3185 92.2564 42.2415 85.3545 44.5994C83.8792 45.0925 83.8792 45.0925 82.3741 45.5955C65.1624 52.0304 53.7919 64.5966 46.1529 80.8436C39.7553 94.9143 40.4097 114.085 45.3545 128.599C48.3848 135.971 52.4662 142.05 57.6455 148.029C58.165 148.63 58.6846 149.232 59.2198 149.852C65.7364 157.303 72.7475 164.257 79.7618 171.234C81.2713 172.743 82.7805 174.252 84.2892 175.762C88.3438 179.817 92.4045 183.866 96.4664 187.914C100.726 192.161 104.98 196.414 109.235 200.666C117.273 208.699 125.317 216.726 133.362 224.751C142.53 233.896 151.691 243.047 160.852 252.198C179.68 271.005 198.515 289.804 217.355 308.599C216.425 309.73 215.488 310.854 214.549 311.977C214.028 312.604 213.507 313.231 212.97 313.877C210.68 316.319 208.192 317.587 205.167 318.974C203.63 319.698 203.63 319.698 202.062 320.435C194.338 323.757 185.137 323.98 177.054 321.646C166.646 316.849 158.981 308.515 151.412 300.154C145.517 293.691 139.37 287.508 133.157 281.352C131.979 280.181 130.802 279.01 129.625 277.838C127.114 275.341 124.602 272.845 122.088 270.35C118.103 266.392 114.123 262.429 110.144 258.465C108.773 257.1 107.403 255.735 106.033 254.37C105.348 253.687 104.662 253.004 103.956 252.3C94.711 243.091 85.4614 233.887 76.2015 224.693C69.9271 218.464 63.6601 212.227 57.401 205.982C54.1008 202.689 50.7971 199.401 47.4843 196.122C44.3671 193.036 41.2597 189.94 38.159 186.838C37.0298 185.712 35.8973 184.588 34.761 183.469C22.8172 171.698 13.7287 159.177 7.35453 143.599C6.95492 142.627 6.55531 141.656 6.14359 140.654C-3.10192 115.698 -1.74146 86.8566 9.07328 62.658C13.1945 53.8475 18.1257 46.1062 24.3545 38.5994C25.0403 37.7499 25.7261 36.9005 26.4327 36.0252C39.9818 20.0422 59.0385 8.55398 79.3545 3.59944C80.2122 3.35226 81.07 3.10508 81.9537 2.85041C89.4456 0.777838 96.3481 0.124029 104.105 0.224437Z" fill="#ED6325"/>
<path d="M322.354 12.5994C323.446 13.195 324.538 13.7905 325.663 14.4041C347.801 27.2138 362.719 46.1054 372.354 69.5994C372.6 70.1905 372.845 70.7815 373.097 71.3904C381.923 93.5835 380.128 120.426 372.354 142.599C370.963 145.811 369.38 148.89 367.729 151.974C367.341 152.735 366.953 153.496 366.554 154.279C359.98 166.721 350.793 176.609 340.922 186.452C339.695 187.687 338.468 188.921 337.243 190.157C333.946 193.475 330.641 196.784 327.333 200.09C324.566 202.857 321.804 205.628 319.041 208.398C312.531 214.928 306.013 221.449 299.49 227.965C292.759 234.689 286.043 241.428 279.335 248.174C273.563 253.975 267.783 259.768 261.994 265.552C258.541 269.003 255.092 272.458 251.652 275.922C248.426 279.17 245.189 282.406 241.942 285.632C240.751 286.82 239.564 288.012 238.382 289.208C236.773 290.836 235.149 292.447 233.52 294.055C232.614 294.962 231.708 295.869 230.774 296.804C228.354 298.599 228.354 298.599 226.211 298.54C222.982 296.904 220.626 294.258 218.117 291.703C217.502 291.088 216.887 290.473 216.253 289.84C214.223 287.807 212.203 285.764 210.183 283.721C208.777 282.309 207.37 280.898 205.962 279.487C202.26 275.774 198.567 272.051 194.875 268.326C191.107 264.527 187.33 260.737 183.554 256.945C176.146 249.505 168.747 242.055 161.354 234.599C162.299 233.489 163.245 232.379 164.191 231.27C164.718 230.651 165.245 230.033 165.787 229.397C167.936 226.933 170.216 224.626 172.534 222.322C173.462 221.397 174.39 220.472 175.347 219.519C176.308 218.567 177.268 217.614 178.229 216.662C179.214 215.682 180.198 214.703 181.183 213.722C183.571 211.346 185.962 208.972 188.354 206.599C191.4 207.961 193.493 209.493 195.838 211.856C196.498 212.516 197.159 213.177 197.839 213.857C198.54 214.569 199.241 215.28 199.964 216.013C200.691 216.743 201.417 217.473 202.166 218.225C204.484 220.553 206.794 222.889 209.104 225.224C210.676 226.806 212.247 228.386 213.819 229.967C217.67 233.839 221.514 237.717 225.354 241.599C230.799 240.116 233.983 236.37 237.815 232.467C238.524 231.756 239.233 231.045 239.963 230.313C241.461 228.809 242.955 227.3 244.446 225.789C246.708 223.497 248.979 221.215 251.253 218.935C252.712 217.467 254.17 215.998 255.628 214.529C256.298 213.855 256.968 213.181 257.658 212.486C261.493 208.594 265.144 204.594 268.717 200.462C271.051 197.807 273.508 195.316 276.007 192.814C276.511 192.309 277.014 191.805 277.534 191.285C278.587 190.231 279.641 189.178 280.697 188.127C282.289 186.54 283.876 184.948 285.462 183.355C290.375 178.439 295.333 173.63 300.618 169.109C303.337 166.745 305.883 164.221 308.417 161.662C309.189 160.885 309.189 160.885 309.976 160.092C313.945 156.07 317.754 151.956 321.354 147.599C321.949 146.906 322.543 146.212 323.155 145.498C335.449 130.598 337.642 113.303 336.354 94.5994C334.364 79.3188 325.741 65.4945 314.124 55.5799C298.322 44.2802 280.097 39.1573 260.854 42.1424C249.024 44.8737 236.5 50.3681 228.354 59.5994C224.3 57.9722 221.511 55.0965 218.46 52.076C217.633 51.2621 217.633 51.2621 216.788 50.4318C215.628 49.2863 214.471 48.138 213.317 46.9871C211.543 45.2251 209.751 43.4827 207.958 41.7401C206.833 40.624 205.708 39.5069 204.585 38.3885C204.046 37.8686 203.506 37.3486 202.95 36.813C201.472 35.3167 201.472 35.3167 199.354 32.5994C199.409 29.3952 200.267 28.6907 202.515 26.3377C235.925 -1.58671 283.471 -9.13898 322.354 12.5994Z" fill="#ED6326"/>
<path d="M217.821 177.823C203.169 191.668 180.068 191.014 166.223 176.361C152.378 161.709 153.033 138.608 167.685 124.763C182.337 110.919 205.438 111.573 219.283 126.225C233.128 140.877 232.473 163.979 217.821 177.823ZM174.878 132.376C164.43 142.248 163.963 158.721 173.835 169.168C183.707 179.616 200.18 180.083 210.628 170.211C221.076 160.339 221.542 143.866 211.67 133.418C201.798 122.97 185.326 122.504 174.878 132.376Z" fill="#ED6326"/>
<path d="M242.013 96.137C244.396 93.8353 248.195 93.9018 250.497 96.2857V96.2857C252.798 98.6695 252.732 102.468 250.348 104.77L148.698 202.919C146.314 205.221 142.516 205.155 140.214 202.771V202.771C137.912 200.387 137.979 196.589 140.362 194.287L242.013 96.137Z" fill="#ED6326"/>
<path d="M133.868 99.7296C131.551 97.3598 131.595 93.5611 133.965 91.2449V91.2449C136.335 88.9287 140.133 88.9722 142.449 91.3419L172.955 122.553C175.271 124.923 175.227 128.722 172.858 131.038V131.038C170.488 133.354 166.689 133.311 164.373 130.941L133.868 99.7296Z" fill="#ED6326"/>
<path d="M211.019 179.725C208.703 177.355 208.746 173.556 211.116 171.24V171.24C213.486 168.924 217.285 168.967 219.601 171.337L250.827 203.287C253.144 205.656 253.1 209.455 250.73 211.771V211.771C248.361 214.087 244.562 214.044 242.246 211.674L211.019 179.725Z" fill="#ED6326"/>
<path d="M514.566 88.6523C521.402 88.6523 528.043 89.8242 534.488 92.168C541.129 94.5117 547.477 97.9297 553.531 102.422C554.508 103.398 555.582 104.375 556.754 105.352C557.73 104.375 558.805 103.398 559.977 102.422C566.031 97.9297 572.281 94.5117 578.727 92.168C585.367 89.8242 592.008 88.6523 598.648 88.6523C605.484 88.6523 612.125 89.8242 618.57 92.168C625.211 94.5117 631.461 98.0273 637.32 102.715C643.375 107.207 648.648 113.262 653.141 120.879C657.828 128.496 660.172 137.578 660.172 148.125V253.887C659 265.605 652.555 271.953 640.836 272.93C635.367 272.93 630.582 271.172 626.48 267.656C622.574 263.945 620.621 259.355 620.621 253.887V150.469C620.621 145.781 619.742 141.875 617.984 138.75C616.227 135.43 614.273 132.891 612.125 131.133C609.977 129.18 607.73 127.812 605.387 127.031C603.043 126.055 600.699 125.566 598.355 125.566C596.012 125.566 593.668 126.055 591.324 127.031C589.176 127.812 587.027 129.18 584.879 131.133C582.73 132.891 580.777 135.43 579.02 138.75C577.262 141.875 576.285 145.781 576.09 150.469V253.887C574.918 265.605 568.473 271.953 556.754 272.93C551.285 272.93 546.5 271.172 542.398 267.656C538.492 263.945 536.539 259.355 536.539 253.887V150.469C536.539 145.781 535.66 141.875 533.902 138.75C532.145 135.43 530.191 132.891 528.043 131.133C525.895 129.18 523.648 127.812 521.305 127.031C518.961 126.055 516.617 125.566 514.273 125.566C511.93 125.566 509.586 126.055 507.242 127.031C505.094 127.812 502.945 129.18 500.797 131.133C498.648 132.891 496.695 135.43 494.938 138.75C493.18 141.875 492.203 145.781 492.008 150.469V253.887C491.031 265.605 484.684 271.953 472.965 272.93C467.496 272.93 462.711 271.172 458.609 267.656C454.703 263.945 452.75 259.355 452.75 253.887V148.125C453.141 137.578 455.582 128.496 460.074 120.879C464.566 113.262 469.84 107.207 475.895 102.715C481.949 98.0273 488.199 94.5117 494.645 92.168C501.285 89.8242 507.926 88.6523 514.566 88.6523ZM763.004 224.004C763.004 218.535 764.859 213.945 768.57 210.234C772.477 206.328 777.164 204.375 782.633 204.375H827.457L819.84 182.695C816.715 174.688 813.59 167.168 810.465 160.137C807.535 152.91 804.117 146.367 800.211 140.508C796.695 134.648 792.691 131.523 788.199 131.133C783.512 131.523 779.312 134.648 775.602 140.508C771.891 146.367 768.473 152.91 765.348 160.137C762.418 167.168 759.391 174.688 756.266 182.695L728.434 258.867C726.48 262.969 723.941 266.387 720.816 269.121C717.887 271.66 713.395 272.93 707.34 272.93C701.676 272.93 696.988 270.977 693.277 267.07C689.762 263.164 688.199 258.477 688.59 253.008C688.785 250.469 689.371 248.125 690.348 245.977L722.574 162.773C731.559 140.898 740.543 123.223 749.527 109.746C758.316 96.4648 771.207 89.7266 788.199 89.5312C804.996 89.7266 817.789 96.4648 826.578 109.746C835.562 122.832 844.547 140.508 853.531 162.773L885.758 245.977C886.734 248.125 887.32 250.469 887.516 253.008C887.906 258.477 886.246 263.164 882.535 267.07C879.02 270.977 874.43 272.93 868.766 272.93C862.32 272.93 857.535 271.66 854.41 269.121C851.48 266.387 849.039 262.969 847.086 258.867L841.52 243.633H782.633C777.164 243.633 772.574 241.68 768.863 237.773C764.957 234.062 763.004 229.473 763.004 224.004ZM911.246 116.191C911.246 110.723 913.102 106.133 916.812 102.422C920.719 98.5156 925.406 96.5625 930.875 96.5625H1101.38C1106.85 96.5625 1111.54 98.418 1115.45 102.129C1119.16 106.035 1121.01 110.723 1121.01 116.191C1121.01 121.66 1119.06 126.348 1115.15 130.254C1111.44 133.965 1106.85 135.82 1101.38 135.82H1036.05V254.473C1034.88 266.191 1028.43 272.539 1016.71 273.516C1011.25 273.516 1006.46 271.758 1002.36 268.242C998.453 264.531 996.5 259.941 996.5 254.473V135.82H930.875C925.406 135.82 920.816 133.867 917.105 129.961C913.199 126.25 911.246 121.66 911.246 116.191ZM1218.57 135.82C1211.15 136.211 1204.9 139.043 1199.82 144.316C1194.94 149.59 1191.42 155.645 1189.27 162.48C1187.12 169.121 1186.05 175.957 1186.05 182.988C1186.05 190.02 1187.03 196.953 1188.98 203.789C1191.13 210.625 1194.74 216.68 1199.82 221.953C1204.9 227.031 1211.15 229.766 1218.57 230.156H1315.25C1327.55 231.328 1334.29 238.066 1335.46 250.371C1335.27 255.84 1333.22 260.43 1329.31 264.141C1325.41 267.656 1320.72 269.414 1315.25 269.414H1221.79H1208.32C1194.64 268.633 1183.41 263.457 1174.62 253.887C1165.84 244.121 1159.49 233.086 1155.58 220.781C1151.87 208.477 1150.02 195.879 1150.02 182.988C1150.02 173.418 1151.09 163.945 1153.24 154.57C1155.39 145.195 1158.71 136.309 1163.2 127.91C1167.89 119.316 1174.04 111.992 1181.66 105.938C1189.47 99.8828 1198.36 96.7578 1208.32 96.5625H1213.88H1315.25C1327.55 97.7344 1334.29 104.473 1335.46 116.777C1335.46 122.246 1333.41 126.836 1329.31 130.547C1325.41 134.062 1320.72 135.82 1315.25 135.82H1218.57ZM1382.63 91.875C1387.91 92.0703 1392.4 94.0234 1396.11 97.7344C1399.82 101.25 1401.77 105.645 1401.97 110.918V159.844H1497.18V110.918C1497.38 105.449 1499.43 100.957 1503.34 97.4414C1507.24 93.7305 1511.93 91.875 1517.4 91.875C1522.67 92.0703 1527.16 94.0234 1530.88 97.7344C1534.59 101.25 1536.54 105.645 1536.73 110.918V254.473C1535.56 266.191 1529.12 272.539 1517.4 273.516C1511.93 273.516 1507.14 271.758 1503.04 268.242C1499.14 264.531 1497.18 259.941 1497.18 254.473V199.102H1401.97V254.473C1400.8 266.191 1394.35 272.539 1382.63 273.516C1377.16 273.516 1372.38 271.758 1368.28 268.242C1364.37 264.531 1362.42 259.941 1362.42 254.473V110.918C1362.61 105.449 1364.66 100.957 1368.57 97.4414C1372.48 93.7305 1377.16 91.875 1382.63 91.875ZM1638.98 224.004C1638.98 218.535 1640.84 213.945 1644.55 210.234C1648.45 206.328 1653.14 204.375 1658.61 204.375H1703.43L1695.82 182.695C1692.69 174.688 1689.57 167.168 1686.44 160.137C1683.51 152.91 1680.09 146.367 1676.19 140.508C1672.67 134.648 1668.67 131.523 1664.18 131.133C1659.49 131.523 1655.29 134.648 1651.58 140.508C1647.87 146.367 1644.45 152.91 1641.32 160.137C1638.39 167.168 1635.37 174.688 1632.24 182.695L1604.41 258.867C1602.46 262.969 1599.92 266.387 1596.79 269.121C1593.86 271.66 1589.37 272.93 1583.32 272.93C1577.65 272.93 1572.96 270.977 1569.25 267.07C1565.74 263.164 1564.18 258.477 1564.57 253.008C1564.76 250.469 1565.35 248.125 1566.32 245.977L1598.55 162.773C1607.54 140.898 1616.52 123.223 1625.5 109.746C1634.29 96.4648 1647.18 89.7266 1664.18 89.5312C1680.97 89.7266 1693.77 96.4648 1702.55 109.746C1711.54 122.832 1720.52 140.508 1729.51 162.773L1761.73 245.977C1762.71 248.125 1763.3 250.469 1763.49 253.008C1763.88 258.477 1762.22 263.164 1758.51 267.07C1755 270.977 1750.41 272.93 1744.74 272.93C1738.3 272.93 1733.51 271.66 1730.39 269.121C1727.46 266.387 1725.02 262.969 1723.06 258.867L1717.5 243.633H1658.61C1653.14 243.633 1648.55 241.68 1644.84 237.773C1640.93 234.062 1638.98 229.473 1638.98 224.004Z" fill="#ED6326"/>
</svg>
